<svg width="1066" height="177" viewBox="0 0 1066 177" fill="none" xmlns="http://www.w3.org/2000/svg">
<path fill-rule="evenodd" clip-rule="evenodd" d="M120.723 0H151.757C166.661 0 178.794 12.0588 178.794 26.8725V57.6096H167.165V26.8725C167.165 18.426 160.255 11.5588 151.757 11.5588H120.723V0ZM122.904 2.16755H151.757C165.457 2.16755 176.613 13.2559 176.613 26.8725V55.442H176.607V26.8727C176.607 13.2561 165.45 2.16783 151.75 2.16783H122.904V2.16755ZM9.4482 26.8727C9.4482 20.3935 13.0079 14.7294 18.2867 11.71C13.0082 14.7295 9.4487 20.3934 9.4487 26.8725V55.442H9.4482V26.8727ZM27.037 2.16756C22.7555 2.16756 18.7225 3.2505 15.2008 5.15513C18.7224 3.25067 22.7552 2.16783 27.0365 2.16783H56.326V9.39121H56.3265V2.16756H27.037ZM58.5074 11.5588H27.037C18.5388 11.5588 11.6295 18.426 11.6295 26.8725V57.6096H0V26.8725C0 12.0588 12.1326 6.95379e-06 27.037 6.95379e-06H58.5074V11.5588ZM126.28 83.9419V166.686H126.279V83.9388C126.279 82.9847 126.202 82.0483 126.054 81.1357C126.203 82.0493 126.28 82.9867 126.28 83.9419ZM9.4487 149.208C9.4487 149.939 9.4939 150.659 9.5819 151.367C9.49365 150.658 9.4482 149.937 9.4482 149.205V119.302H9.4487V149.208ZM27.037 173.913C14.86 173.913 4.69276 165.153 2.58267 153.643C4.69401 165.151 14.8606 173.909 27.0365 173.909H55.0542H55.89H62.322V83.9388C62.322 78.3765 66.7918 73.8618 72.279 73.8618H109.091C113.964 73.8618 118.035 77.4228 118.885 82.116C118.034 77.4243 113.964 73.8649 109.091 73.8649H72.2795C66.7923 73.8649 62.3225 78.3796 62.3225 83.9419V173.913H27.037ZM119.048 173.913V173.909H122.5H126.316H151.79C165.49 173.909 176.646 162.821 176.646 149.205V119.013H176.646V149.208C176.646 162.824 165.49 173.913 151.79 173.913H119.048ZM167.161 147.04H167.198V116.845H178.827V149.208C178.827 164.021 166.695 176.08 151.79 176.08H116.868V83.9419C116.868 79.5409 113.338 76.0324 109.091 76.0324H72.2795C68.0325 76.0324 64.5034 79.5409 64.5034 83.9419V176.08H27.037C12.1326 176.08 0 164.021 0 149.208V117.134H11.6295V149.208C11.6295 157.654 18.5388 164.521 27.037 164.521H52.8738V83.9419C52.8738 73.2303 61.5697 64.4737 72.2795 64.4737H109.055C119.804 64.4737 128.461 73.2333 128.461 83.9419V164.521H151.754C160.252 164.521 167.161 157.654 167.161 149.208V147.04ZM87.394 121.541C87.394 124.932 84.6282 127.681 81.2163 127.681C77.8045 127.681 75.0386 124.932 75.0386 121.541C75.0386 118.15 77.8045 115.401 81.2163 115.401C84.6282 115.401 87.394 118.15 87.394 121.541Z" fill="url(#paint0_linear_3392_23100)"/>
<path d="M308.059 159.274C320.798 159.274 329.756 151.908 334.334 137.377L369.368 23.3178H348.467L315.822 132.202C314.429 136.979 312.04 139.368 308.059 139.368C304.078 139.368 301.689 136.979 300.296 132.202L267.252 23.3178H246.55L281.584 137.377C286.163 151.908 294.921 159.274 308.059 159.274Z" fill="#030D22"/>
<path d="M399.841 39.8395C407.007 39.8395 412.581 34.0669 412.581 26.9009C412.581 19.7348 407.007 13.7631 399.841 13.7631C392.675 13.7631 386.902 19.7348 386.902 26.9009C386.902 34.0669 392.675 39.8395 399.841 39.8395ZM390.087 59.148V156.686H409.794V59.148H390.087Z" fill="#030D22"/>
<path d="M485.49 158.875C504.599 158.875 520.325 149.918 528.884 133.197L513.756 125.434C507.983 136.183 497.234 141.358 485.291 141.358C467.774 141.358 455.034 129.614 452.844 112.893H530.875V104.931C530.875 77.6603 512.561 56.3612 483.101 56.3612C453.84 56.3612 433.735 79.2528 433.735 107.32C433.735 137.377 455.83 158.875 485.49 158.875ZM453.641 100.154C455.631 85.6226 466.38 74.0773 482.902 74.0773C499.026 74.0773 510.372 84.6273 511.168 100.154H453.641Z" fill="#030D22"/>
<path d="M582.293 159.274C592.445 159.274 599.213 153.302 602 141.557L618.124 77.0631C618.522 75.0726 619.517 73.8782 621.309 73.8782C623.299 73.8782 624.294 75.0726 624.892 77.0631L640.816 141.557C643.603 153.302 650.371 159.274 660.523 159.274C670.276 159.274 678.438 153.302 681.225 141.358L699.737 59.148H681.424L664.106 137.576C663.509 139.965 662.513 141.159 660.722 141.159C658.731 141.159 657.736 139.965 657.139 137.974L641.413 74.2763C638.427 62.3329 631.859 56.7594 621.508 56.7594C611.157 56.7594 604.389 62.532 601.403 74.4754L585.478 137.974C585.08 139.766 583.886 141.159 582.293 141.159C580.104 141.159 579.308 139.965 578.71 137.576L560.795 59.148H542.283L561.393 141.358C564.179 153.302 572.54 159.274 582.293 159.274Z" fill="#030D22"/>
<path d="M730.555 39.8395C737.721 39.8395 743.295 34.0669 743.295 26.9009C743.295 19.7348 737.721 13.7631 730.555 13.7631C723.389 13.7631 717.616 19.7348 717.616 26.9009C717.616 34.0669 723.389 39.8395 730.555 39.8395ZM720.801 59.148V156.686H740.508V59.148H720.801Z" fill="#030D22"/>
<path d="M815.009 159.274C822.175 159.274 829.939 157.084 834.915 153.7V135.586C830.138 138.97 823.171 141.358 816.801 141.358C805.057 141.358 797.492 133.794 797.492 121.055V76.2669H834.915V59.148H797.492V33.8678H777.786V59.148H758.477V76.2669H777.786V121.652C777.786 143.946 790.724 159.274 815.009 159.274Z" fill="#030D22"/>
<path d="M957.981 162.317C929.084 162.317 907.92 138.711 907.92 109.814C907.92 81.3246 930.712 57.7188 961.033 57.7188C991.151 57.7188 1014.15 80.1036 1014.15 109.814V159.875H995.017V142.374C987.488 154.584 974.261 162.317 957.981 162.317ZM961.033 143.188C979.755 143.188 994 128.129 994 110.018C994 91.703 979.755 76.6441 961.033 76.6441C942.515 76.6441 928.066 91.703 928.066 110.018C928.066 128.129 942.515 143.188 961.033 143.188Z" fill="#030D22"/>
<path d="M1052.98 40.4214C1045.65 40.4214 1039.75 34.52 1039.75 27.194C1039.75 19.8681 1045.65 13.7631 1052.98 13.7631C1060.3 13.7631 1066 19.8681 1066 27.194C1066 34.52 1060.3 40.4214 1052.98 40.4214ZM1043 60.1608H1063.15V159.875H1043V60.1608Z" fill="#030D22"/>
<circle cx="876.83" cy="146.603" r="14.1318" fill="url(#paint1_linear_3392_23100)"/>
<defs>
<linearGradient id="paint0_linear_3392_23100" x1="89.4136" y1="0" x2="89.4136" y2="176.08" gradientUnits="userSpaceOnUse">
<stop stop-color="#1F65F7"/>
<stop offset="1" stop-color="#4EB1F6"/>
</linearGradient>
<linearGradient id="paint1_linear_3392_23100" x1="876.83" y1="132.471" x2="876.83" y2="160.734" gradientUnits="userSpaceOnUse">
<stop stop-color="#2066F7"/>
<stop offset="1" stop-color="#4CAFF6"/>
</linearGradient>
</defs>
</svg>
